<svg width="41" height="43" viewBox="0 0 41 43" fill="none" xmlns="http://www.w3.org/2000/svg">
<path d="M20.5 0.25C9.70174 0.25 0.916656 7.87663 0.916656 17.25C0.916656 23.4295 4.63357 28.9694 10.7083 31.9848V42.75L21.1658 34.2394C31.6566 33.9355 40.0833 26.43 40.0833 17.25C40.0833 7.87663 31.2982 0.25 20.5 0.25ZM20.5 30H19.8479L14.625 34.25V29.1139L13.3697 28.589C8.10374 26.3896 4.83332 22.044 4.83332 17.25C4.83332 10.2184 11.8618 4.5 20.5 4.5C29.1382 4.5 36.1667 10.2184 36.1667 17.25C36.1667 24.2816 29.1382 30 20.5 30Z" fill="#0BFCFA"/>
</svg>
