<svg width="29" height="32" viewBox="0 0 29 32" fill="none" xmlns="http://www.w3.org/2000/svg">
<path d="M13.4479 0V5.07795H15.1727V0H13.4478H13.4479ZM6.40499 1.526L4.99187 2.51541L7.90395 6.67397L9.31629 5.68453L6.40499 1.526ZM22.2153 1.526L19.3041 5.68456L20.7166 6.674L23.6286 2.51541L22.2155 1.526H22.2153ZM14.3099 6.46731C10.0906 6.46731 6.67013 9.02952 6.67013 12.1906L11.0107 25.3359H17.6099L21.9501 12.1906C21.9501 9.02957 18.5299 6.46731 14.3103 6.46731H14.3099ZM0.589307 7.99128L0 9.61299L4.76931 11.3494L5.3608 9.72843L0.5892 7.99128H0.589307ZM28.031 7.99128L23.2593 9.72856L23.8488 11.3497L28.6205 9.61301L28.031 7.99128ZM5.1304 15.4048L0.2264 16.7202L0.67136 18.385L5.57536 17.0715L5.13048 15.4048H5.1304ZM23.4899 15.4048L23.0452 17.0715L27.9492 18.3848L28.3939 16.7199L23.4899 15.4048V15.4048ZM10.9145 26.2942V28.5791H17.7062V26.2945H10.9145L10.9145 26.2942ZM10.9145 29.715V32H17.7062V29.7154H10.9145L10.9145 29.715Z" fill="#0BFCFA"/>
</svg>
